#!OML:ASF Y:\EmotionMaleHayes\Project 1\Capture day 1\Session 1\Male1.ASF
:FULLY-SPECIFIED
:DEGREES
2428
root 10.0247 17.4321 -6.68632 1081.5 -2.43174 720.276
lowerback 4.6757 2.8735 -15.3742
upperback 3.30544 3.23937 -5.14403
thorax 0.354822 1.42948 2.98391
lowerneck -26.0098 3.69827 5.66063
upperneck 26.096 4.39035 -4.51125
head 13.3636 1.84555 -1.89345
rclavicle 2.54444e-014 -9.85972e-014
rhumerus 40.3719 15.6866 -35.4053
rradius 39.1249
rwrist -2.73966
rhand -5.27081 -29.5546
rfingers 7.12502
rthumb 20.5332 -58.4887
lclavicle 2.54444e-014 -9.85972e-014
lhumerus 41.7054 -11.8396 29.558
lradius 40.3281
lwrist 3.46611
lhand -16.0764 -25.3543
lfingers 7.12502
lthumb 10.1265 4.38202
rfemur -10.6757 -1.09559 12.096
rtibia 13.3948
rfoot -11.1982 -0.795156
rtoes -3.54071
lfemur 20.4043 -6.05135 -20.182
ltibia 4.88237
lfoot -13.0839 9.25807
ltoes -22.0585
2429
root 9.99241 17.4119 -6.56167 1081.4 -2.14979 720.499
lowerback 4.54931 2.88 -15.4943
upperback 3.39336 3.2827 -5.11624
thorax 0.50726 1.43607 3.08241
lowerneck -26.136 3.70518 5.85265
upperneck 26.0159 4.37478 -4.71736
head 13.3658 1.82745 -2.00845
rclavicle -1.39149e-014 -6.67916e-014
rhumerus 40.1419 15.4867 -35.4568
rradius 39.261
rwrist -2.87437
rhand -5.55862 -29.3454
rfingers 7.12502
rthumb 20.2566 -58.3091
lclavicle -1.39149e-014 -6.67916e-014
lhumerus 41.9274 -11.3732 30.6944
lradius 39.7619
lwrist 2.25021
lhand -15.8811 -25.7874
lfingers 7.12502
lthumb 10.3149 3.93967
rfemur -11.0431 -1.24689 12.1383
rtibia 12.7094
rfoot -10.4881 -0.438341
rtoes -1.22952
lfemur 21.0144 -6.11126 -20.3309
ltibia 4.70625
lfoot -13.1213 9.03095
ltoes -20.8381
2430
root 9.95957 17.3895 -6.43834 1081.29 -1.80872 720.881
lowerback 4.51779 2.81989 -15.6966
upperback 3.43595 3.21014 -5.16806
thorax 0.578758 1.39172 3.14238
lowerneck -26.3987 3.76293 6.02306
upperneck 26.126 4.43371 -4.90063
head 13.4781 1.84053 -2.09849
rclavicle -3.29983e-014 7.95139e-014
rhumerus 40.0668 15.4355 -35.5521
rradius 39.4637
rwrist -2.91032
rhand -5.66456 -29.2804
rfingers 7.12502
rthumb 20.1548 -58.2549
lclavicle -3.29983e-014 7.95139e-014
lhumerus 41.9756 -11.3591 30.6579
lradius 39.688
lwrist 2.10384
lhand -15.6778 -26.1512
lfingers 7.12502
lthumb 10.511 3.56597
rfemur -11.4258 -1.37975 11.9621
rtibia 12.0681
rfoot -9.5966 -0.220201
rtoes 1.62972
lfemur 21.501 -5.9462 -20.5517
ltibia 4.68799
lfoot -12.771 8.8971
ltoes -22.833
2431
root 9.93 17.3644 -6.31254 1081.23 -1.40223 721.139
lowerback 4.51886 2.73272 -15.7483
upperback 3.40592 3.09113 -5.15224
thorax 0.56347 1.33503 3.1934
lowerneck -26.343 3.65316 5.66379
upperneck 26.0319 4.34364 -4.6404
head 13.4042 1.80292 -1.95124
rclavicle -1.31198e-014 6.36111e-014
rhumerus 40.1177 15.4395 -35.5656
rradius 39.5409
rwrist -2.92011
rhand -5.57925 -29.1888
rfingers 7.12502
rthumb 20.2368 -58.1546
lclavicle -1.31198e-014 6.36111e-014
lhumerus 41.8635 -11.5857 30.3529
lradius 39.8688
lwrist 2.3478
lhand -15.696 -25.9444
lfingers 7.12502
lthumb 10.4934 3.77368
rfemur -11.883 -1.9536 11.9214
rtibia 11.6638
rfoot -8.65584 0.131255
rtoes 2.3993
lfemur 21.9559 -5.85079 -20.606
ltibia 4.67454
lfoot -12.4863 8.63204
ltoes -24.0328
2432
root 9.89909 17.3376 -6.18096 1081.17 -1.07122 721.446
lowerback 4.44605 2.70234 -15.8621
upperback 3.37907 3.06047 -5.15144
thorax 0.576973 1.31897 3.25921
lowerneck -26.1401 3.68864 5.7283
upperneck 25.6839 4.36864 -4.65549
head 13.2238 1.82159 -1.95972
rclavicle -9.54166e-015 -1.59028e-014
rhumerus 40.0952 15.2535 -35.8071
rradius 39.4771
rwrist -2.6694
rhand -5.27381 -29.2467
rfingers 7.12502
rthumb 20.5303 -58.1811
lclavicle -9.54166e-015 -1.59028e-014
lhumerus 41.8523 -11.77 30.3531
lradius 40.0104
lwrist 2.37491
lhand -15.6912 -25.6289
lfingers 7.12502
lthumb 10.498 4.08897
rfemur -12.3429 -2.6368 11.832
rtibia 11.4064
rfoot -7.76802 0.472632
rtoes 2.95992
lfemur 22.555 -6.32118 -20.981
ltibia 4.52608
lfoot -12.8799 8.1656
ltoes -19.0928
2433
root 9.86576 17.3083 -6.04618 1081.1 -0.779314 721.728
lowerback 4.35771 2.678 -15.9243
upperback 3.35174 3.04295 -5.18291
thorax 0.600069 1.30989 3.26345
lowerneck -25.4924 3.60912 5.29439
upperneck 24.9345 4.2818 -4.15557
head 12.7601 1.82114 -1.70407
rclavicle 1.98785e-015 2.22639e-014
rhumerus 40.3163 15.1243 -35.9884
rradius 39.2096
rwrist -2.64934
rhand -5.13319 -29.4029
rfingers 7.12502
rthumb 20.6654 -58.3227
lclavicle 1.98785e-015 2.22639e-014
lhumerus 41.8914 -11.9741 30.2531
lradius 40.0844
lwrist 2.48617
lhand -15.5907 -25.9102
lfingers 7.12502
lthumb 10.595 3.80273
rfemur -12.7607 -3.13279 11.787
rtibia 11.2008
rfoot -7.0239 0.4659
rtoes 5.71024
lfemur 23.1419 -6.51976 -21.2651
ltibia 4.43231
lfoot -12.8028 8.17472
ltoes -19.6405
2434
root 9.83438 17.2753 -5.91066 1081.01 -0.484599 722.089
lowerback 4.32721 2.62495 -16.0292
upperback 3.29151 2.96928 -5.18214
thorax 0.561687 1.27757 3.32436
lowerneck -25.9676 3.5251 5.24356
upperneck 25.3444 4.18083 -4.17851
head 13.0128 1.76203 -1.72409
rclavicle -6.75868e-015 9.54166e-015
rhumerus 40.6527 15.2801 -35.7557
rradius 38.9854
rwrist -3.1212
rhand -5.45359 -29.2393
rfingers 7.12502
rthumb 20.3576 -58.1923
lclavicle -6.75868e-015 9.54166e-015
lhumerus 41.8235 -12.0464 30.4232
lradius 39.9385
lwrist 2.38911
lhand -15.5209 -26.231
lfingers 7.12502
lthumb 10.6623 3.47843
rfemur -13.2056 -3.78223 11.6974
rtibia 11.1767
rfoot -6.38515 0.137738
rtoes 8.65933
lfemur 23.7186 -6.53679 -21.508
ltibia 4.38532
lfoot -12.9173 7.78023
ltoes -17.4576
2435
root 9.80417 17.2391 -5.77445 1080.93 -0.199723 722.634
lowerback 4.2536 2.56625 -16.3351
upperback 3.25564 2.89409 -5.1959
thorax 0.568844 1.23748 3.47876
lowerneck -26.4762 3.52467 5.36574
upperneck 25.8256 4.19409 -4.40619
head 13.3211 1.74041 -1.83377
rclavicle 7.55382e-015 6.67916e-014
rhumerus 40.7498 15.3501 -35.6593
rradius 39.0057
rwrist -3.24
rhand -5.56704 -29.2666
rfingers 7.12502
rthumb 20.2485 -58.2312
lclavicle 7.55382e-015 6.67916e-014
lhumerus 41.7893 -11.7231 31.1576
lradius 39.4376
lwrist 1.68457
lhand -15.4167 -26.5137
lfingers 7.12502
lthumb 10.7629 3.19062
rfemur -13.7165 -4.76195 11.4087
rtibia 11.4562
rfoot -5.77446 -0.118799
rtoes 11.6984
lfemur 24.153 -5.96092 -21.6752
ltibia 4.51573
lfoot -12.5263 7.33911
ltoes -19.5219
2436
root 9.77188 17.201 -5.63529 1080.8 0.0406953 723.246
lowerback 4.13903 2.53659 -16.8878
upperback 3.27169 2.86536 -5.13537
thorax 0.636125 1.20907 3.84188
lowerneck -26.8187 3.53084 5.53731
upperneck 26.0221 4.2196 -4.71717
head 13.4857 1.71937 -1.98186
rclavicle -1.47101e-014 -1.59028e-014
rhumerus 41.0325 15.3589 -35.4846
rradius 38.9825
rwrist -3.19417
rhand -5.43586 -29.4349
rfingers 7.12502
rthumb 20.3746 -58.3861
lclavicle -1.47101e-014 -1.59028e-014
lhumerus 41.5348 -12.1768 30.2035
lradius 40.1058
lwrist 2.98681
lhand -15.5309 -26.0359
lfingers 7.12502
lthumb 10.6526 3.67407
rfemur -14.1629 -5.57984 11.0281
rtibia 11.9317
rfoot -5.41718 -0.382991
rtoes 13.5217
lfemur 24.6883 -5.81609 -22.2166
ltibia 4.66257
lfoot -12.3674 7.33808
ltoes -21.5141
2437
root 9.73997 17.1588 -5.49314 1080.65 0.288574 723.938
lowerback 4.09233 2.50123 -17.4586
upperback 3.26139 2.81058 -5.08456
thorax 0.642779 1.17291 4.20207
lowerneck -26.8751 3.49722 5.32194
upperneck 25.9809 4.26651 -4.73876
head 13.4777 1.71367 -1.94451
rclavicle 1.31198e-014 1.59028e-015
rhumerus 41.2749 15.4661 -35.2929
rradius 39.0058
rwrist -3.29219
rhand -5.61975 -29.4263
rfingers 7.12502
rthumb 20.1979 -58.3962
lclavicle 1.31198e-014 1.59028e-015
lhumerus 41.3004 -12.162 30.3535
lradius 40.1411
lwrist 3.04604
lhand -15.5005 -26.1463
lfingers 7.12502
lthumb 10.682 3.56213
rfemur -14.5724 -6.10999 10.52
rtibia 12.5598
rfoot -5.11748 -1.1404
rtoes 13.605
lfemur 25.3008 -6.15104 -23.0635
ltibia 4.8122
lfoot -12.8382 7.04337
ltoes -17.5174
2438
root 9.70892 17.1122 -5.34975 1080.55 0.614136 724.503
lowerback 4.08042 2.45728 -17.6521
upperback 3.21128 2.744 -5.17343
thorax 0.607622 1.1436 4.21303
lowerneck -27.1505 3.39206 5.1628
upperneck 26.0879 4.10865 -4.53781
head 13.5575 1.65431 -1.86864
rclavicle -2.5842e-014 6.67916e-014
rhumerus 41.0164 15.4656 -35.4708
rradius 39.2421
rwrist -3.25426
rhand -5.85233 -29.5722
rfingers 7.12502
rthumb 19.9743 -58.5657
lclavicle -2.5842e-014 6.67916e-014
lhumerus 41.357 -11.9264 30.8981
lradius 39.7301
lwrist 2.00275
lhand -15.3003 -26.6113
lfingers 7.12502
lthumb 10.8751 3.08714
rfemur -15.0339 -6.70821 10.1279
rtibia 13.4978
rfoot -4.737 -2.48597
rtoes 13.1323
lfemur 25.7314 -6.07576 -23.4394
ltibia 5.12945
lfoot -12.8949 6.4483
ltoes -16.3478
2439
root 9.6764 17.0651 -5.20423 1080.43 0.948823 724.955
lowerback 4.0924 2.43677 -17.7579
upperback 3.15739 2.70467 -5.25031
thorax 0.551194 1.13077 4.1878
lowerneck -27.3118 3.26311 5.16461
upperneck 26.0927 3.88496 -4.44969
head 13.5755 1.56876 -1.87689
rclavicle -7.15625e-015 -2.54444e-014
rhumerus 40.7962 15.3824 -35.6287
rradius 39.3993
rwrist -3.18256
rhand -5.73004 -29.6483
rfingers 7.12502
rthumb 20.0919 -58.6294
lclavicle -7.15625e-015 -2.54444e-014
lhumerus 41.4546 -11.9025 31.012
lradius 39.5357
lwrist 1.50684
lhand -15.1144 -26.7592
lfingers 7.12502
lthumb 11.0544 2.9297
rfemur -15.51 -7.27312 9.89152
rtibia 14.8331
rfoot -4.57504 -4.29688
rtoes 7.55729
lfemur 26.1155 -5.55673 -23.4132
ltibia 5.50437
lfoot -12.3854 6.06354
ltoes -21.0041
2440
root 9.64331 17.0203 -5.05802 1080.24 1.27619 725.272
lowerback 4.13804 2.38611 -17.8587
upperback 3.10972 2.61812 -5.15916
thorax 0.484197 1.0937 4.34032
lowerneck -27.0672 3.1721 4.9738
upperneck 25.7245 3.78569 -4.29956
head 13.3593 1.5316 -1.80067
rclavicle -1.74931e-014 -9.54166e-015
rhumerus 40.8365 15.3961 -35.5672
rradius 39.5156
rwrist -3.26898
rhand -5.5858 -29.3255
rfingers 7.12502
rthumb 20.2305 -58.292
lclavicle -1.74931e-014 -9.54166e-015
lhumerus 41.2451 -12.1591 30.6881
lradius 39.7845
lwrist 2.03749
lhand -15.2075 -26.3979
lfingers 7.12502
lthumb 10.9646 3.29577
rfemur -15.8033 -6.255 9.54982
rtibia 17.0792
rfoot -6.31138 -6.6037
rtoes 8.99143
lfemur 26.5869 -4.98925 -23.07
ltibia 5.83482
lfoot -11.9667 5.28796
ltoes -23.1708
